<svg width="30" height="30" viewBox="0 0 30 30" fill="none" xmlns="http://www.w3.org/2000/svg">
<path fill-rule="evenodd" clip-rule="evenodd" d="M11.25 7.8125C10.7986 7.8125 10.3516 7.90141 9.93453 8.07416C9.51747 8.24691 9.13853 8.50012 8.81932 8.81932C8.50012 9.13852 8.24692 9.51747 8.07417 9.93453C7.90142 10.3516 7.8125 10.7986 7.8125 11.25C7.8125 11.7014 7.90142 12.1484 8.07417 12.5655C8.24692 12.9825 8.50012 13.3615 8.81932 13.6807C9.13853 13.9999 9.51747 14.2531 9.93453 14.4258C10.3516 14.5986 10.7986 14.6875 11.25 14.6875C12.1617 14.6875 13.036 14.3253 13.6807 13.6807C14.3253 13.036 14.6875 12.1617 14.6875 11.25C14.6875 10.3383 14.3253 9.46398 13.6807 8.81932C13.036 8.17466 12.1617 7.8125 11.25 7.8125ZM9.6875 11.25C9.6875 10.8356 9.85212 10.4382 10.1451 10.1451C10.4382 9.85212 10.8356 9.6875 11.25 9.6875C11.6644 9.6875 12.0618 9.85212 12.3549 10.1451C12.6479 10.4382 12.8125 10.8356 12.8125 11.25C12.8125 11.6644 12.6479 12.0618 12.3549 12.3549C12.0618 12.6479 11.6644 12.8125 11.25 12.8125C10.8356 12.8125 10.4382 12.6479 10.1451 12.3549C9.85212 12.0618 9.6875 11.6644 9.6875 11.25ZM11.25 15.3125C9.755 15.3125 8.35625 15.6125 7.295 16.1438C6.29125 16.6462 5.3125 17.5138 5.3125 18.75V18.8287C5.31 19.4662 5.3075 20.5412 6.325 21.2775C6.7975 21.6187 7.42125 21.8375 8.19375 21.9762C8.9725 22.1163 9.97125 22.1875 11.25 22.1875C12.5288 22.1875 13.5275 22.1163 14.3063 21.9762C15.0788 21.8375 15.7025 21.6187 16.175 21.2762C17.1925 20.54 17.19 19.4663 17.1875 18.8275V18.75C17.1875 17.5125 16.2088 16.6462 15.205 16.1438C14.1438 15.6138 12.745 15.3125 11.25 15.3125ZM7.1875 18.75C7.1875 18.6062 7.32875 18.2238 8.13375 17.8212C8.88375 17.4462 9.98375 17.1875 11.25 17.1875C12.5163 17.1875 13.6175 17.4462 14.3663 17.8212C15.1713 18.2238 15.3125 18.6062 15.3125 18.75C15.3125 19.505 15.2638 19.6213 15.075 19.7587C14.9225 19.8687 14.6088 20.0162 13.975 20.1312C13.3475 20.2437 12.4713 20.3125 11.25 20.3125C10.0288 20.3125 9.1525 20.2437 8.525 20.1312C7.89125 20.0162 7.5775 19.8687 7.425 19.7587C7.235 19.6213 7.1875 19.505 7.1875 18.75Z" fill="#F78B1F"/>
<path d="M23.75 15.9375C23.9986 15.9375 24.2371 15.8387 24.4129 15.6629C24.5887 15.4871 24.6875 15.2486 24.6875 15C24.6875 14.7514 24.5887 14.5129 24.4129 14.3371C24.2371 14.1613 23.9986 14.0625 23.75 14.0625H18.75C18.5014 14.0625 18.2629 14.1613 18.0871 14.3371C17.9113 14.5129 17.8125 14.7514 17.8125 15C17.8125 15.2486 17.9113 15.4871 18.0871 15.6629C18.2629 15.8387 18.5014 15.9375 18.75 15.9375H23.75ZM24.6875 11.25C24.6875 11.4986 24.5887 11.7371 24.4129 11.9129C24.2371 12.0887 23.9986 12.1875 23.75 12.1875H17.5C17.2514 12.1875 17.0129 12.0887 16.8371 11.9129C16.6613 11.7371 16.5625 11.4986 16.5625 11.25C16.5625 11.0014 16.6613 10.7629 16.8371 10.5871C17.0129 10.4113 17.2514 10.3125 17.5 10.3125H23.75C23.9986 10.3125 24.2371 10.4113 24.4129 10.5871C24.5887 10.7629 24.6875 11.0014 24.6875 11.25ZM23.75 19.6875C23.9986 19.6875 24.2371 19.5887 24.4129 19.4129C24.5887 19.2371 24.6875 18.9986 24.6875 18.75C24.6875 18.5014 24.5887 18.2629 24.4129 18.0871C24.2371 17.9113 23.9986 17.8125 23.75 17.8125H20C19.7514 17.8125 19.5129 17.9113 19.3371 18.0871C19.1613 18.2629 19.0625 18.5014 19.0625 18.75C19.0625 18.9986 19.1613 19.2371 19.3371 19.4129C19.5129 19.5887 19.7514 19.6875 20 19.6875H23.75Z" fill="#F78B1F"/>
<path fill-rule="evenodd" clip-rule="evenodd" d="M12.43 4.0625H17.57C19.8675 4.0625 21.6875 4.0625 23.1112 4.25375C24.5762 4.45125 25.7625 4.86625 26.6987 5.80125C27.6337 6.7375 28.0487 7.92375 28.2462 9.38875C28.4375 10.8138 28.4375 12.6325 28.4375 14.93V15.07C28.4375 17.3675 28.4375 19.1875 28.2462 20.6112C28.0487 22.0763 27.6337 23.2625 26.6987 24.1987C25.7625 25.1337 24.5762 25.5487 23.1112 25.7463C21.6862 25.9375 19.8675 25.9375 17.57 25.9375H12.4312C10.1337 25.9375 8.31372 25.9375 6.88997 25.7463C5.42497 25.5487 4.23872 25.1337 3.30247 24.1987C2.36747 23.2625 1.95247 22.0763 1.75497 20.6112C1.56372 19.1862 1.56372 17.3675 1.56372 15.07V14.93C1.56372 12.6325 1.56372 10.8125 1.75497 9.38875C1.95247 7.92375 2.36747 6.7375 3.30247 5.80125C4.23872 4.86625 5.42497 4.45125 6.88997 4.25375C8.31497 4.0625 10.1325 4.0625 12.43 4.0625ZM7.13747 6.1125C5.87997 6.28125 5.15497 6.59875 4.62497 7.1275C4.09747 7.65625 3.77997 8.38125 3.61122 9.63875C3.43872 10.9237 3.43622 12.6163 3.43622 15C3.43622 17.3837 3.43872 19.0775 3.61122 20.3625C3.77997 21.6188 4.09747 22.3438 4.62622 22.8725C5.15497 23.4013 5.87997 23.7188 7.13747 23.8875C8.42247 24.06 10.115 24.0625 12.4987 24.0625H17.4987C19.8825 24.0625 21.5762 24.06 22.8612 23.8875C24.1175 23.7188 24.8425 23.4013 25.3712 22.8725C25.9 22.3438 26.2175 21.6187 26.3862 20.3612C26.5587 19.0763 26.5612 17.3837 26.5612 15C26.5612 12.6163 26.5587 10.9237 26.3862 9.6375C26.2175 8.38125 25.9 7.65625 25.3712 7.1275C24.8425 6.59875 24.1175 6.28125 22.86 6.1125C21.5762 5.94 19.8825 5.9375 17.4987 5.9375H12.4987C10.115 5.9375 8.42372 5.94 7.13747 6.1125Z" fill="#F78B1F"/>
</svg>
