<svg width="26" height="26" viewBox="0 0 26 26" fill="none" xmlns="http://www.w3.org/2000/svg"><path d="M13 3.25C7.62342 3.25 3.25 7.6245 3.25 13C3.25 18.3755 7.62342 22.75 13 22.75C18.3766 22.75 22.75 18.3755 22.75 13C22.75 7.6245 18.3766 3.25 13 3.25ZM13 20.5833C8.81942 20.5833 5.41667 17.1817 5.41667 13C5.41667 8.81833 8.81942 5.41667 13 5.41667C17.1806 5.41667 20.5833 8.81833 20.5833 13C20.5833 17.1817 17.1806 20.5833 13 20.5833ZM13.7659 13L16.6324 10.1335C16.7334 10.0316 16.7901 9.894 16.7901 9.75054C16.7901 9.60709 16.7334 9.46944 16.6324 9.36758C16.5306 9.26656 16.3929 9.20988 16.2495 9.20988C16.106 9.20988 15.9684 9.26656 15.8665 9.36758L13 12.2341L10.1335 9.3665C10.0313 9.26783 9.89451 9.21323 9.75249 9.21447C9.61047 9.2157 9.47461 9.27267 9.37418 9.3731C9.27375 9.47353 9.21679 9.60939 9.21555 9.75141C9.21432 9.89343 9.26892 10.0303 9.36758 10.1324L12.2341 13L9.36758 15.8665C9.26587 15.9681 9.20868 16.1059 9.20857 16.2496C9.20847 16.3934 9.26547 16.5312 9.36704 16.633C9.46861 16.7347 9.60642 16.7919 9.75016 16.792C9.8939 16.7921 10.0318 16.7351 10.1335 16.6335L13 13.7659L15.8665 16.6324C15.9164 16.6842 15.9761 16.7256 16.0422 16.754C16.1082 16.7825 16.1792 16.7976 16.2512 16.7983C16.3231 16.799 16.3944 16.7854 16.461 16.7583C16.5276 16.7311 16.5882 16.691 16.6391 16.6402C16.69 16.5894 16.7303 16.529 16.7577 16.4625C16.785 16.3959 16.7988 16.3246 16.7983 16.2527C16.7978 16.1808 16.7829 16.1097 16.7546 16.0436C16.7263 15.9775 16.6852 15.9176 16.6335 15.8676L13.7659 13Z" fill="#005594"/></svg>