<svg width="30" height="30" viewBox="0 0 30 30" fill="none" xmlns="http://www.w3.org/2000/svg">
<g clip-path="url(#clip0_111_399)">
<path d="M17.8125 9.37545C17.8125 9.00249 17.9607 8.6448 18.2244 8.38108C18.4881 8.11735 18.8458 7.9692 19.2187 7.9692H28.5937C28.9667 7.9692 29.3244 8.11735 29.5881 8.38108C29.8518 8.6448 30 9.00249 30 9.37545C30 9.74841 29.8518 10.1061 29.5881 10.3698C29.3244 10.6335 28.9667 10.7817 28.5937 10.7817H19.2187C18.8458 10.7817 18.4881 10.6335 18.2244 10.3698C17.9607 10.1061 17.8125 9.74841 17.8125 9.37545ZM28.5937 13.5942H19.2187C18.8458 13.5942 18.4881 13.7424 18.2244 14.0061C17.9607 14.2698 17.8125 14.6275 17.8125 15.0004C17.8125 15.3734 17.9607 15.7311 18.2244 15.9948C18.4881 16.2585 18.8458 16.4067 19.2187 16.4067H28.5937C28.9667 16.4067 29.3244 16.2585 29.5881 15.9948C29.8518 15.7311 30 15.3734 30 15.0004C30 14.6275 29.8518 14.2698 29.5881 14.0061C29.3244 13.7424 28.9667 13.5942 28.5937 13.5942ZM28.5937 19.2192H22.0312C21.6583 19.2192 21.3006 19.3674 21.0369 19.6311C20.7732 19.8948 20.625 20.2525 20.625 20.6254C20.625 20.9984 20.7732 21.3561 21.0369 21.6198C21.3006 21.8835 21.6583 22.0317 22.0312 22.0317H28.5937C28.9667 22.0317 29.3244 21.8835 29.5881 21.6198C29.8518 21.3561 30 20.9984 30 20.6254C30 20.2525 29.8518 19.8948 29.5881 19.6311C29.3244 19.3674 28.9667 19.2192 28.5937 19.2192ZM18.2367 22.1489C18.2829 22.3277 18.2934 22.5139 18.2676 22.6968C18.2418 22.8796 18.1803 23.0556 18.0865 23.2147C17.9927 23.3738 17.8685 23.5129 17.7209 23.624C17.5734 23.7351 17.4054 23.816 17.2266 23.8622C17.0477 23.9083 16.8616 23.9188 16.6787 23.893C16.4958 23.8673 16.3198 23.8057 16.1607 23.7119C16.0016 23.6181 15.8626 23.4939 15.7515 23.3464C15.6404 23.1988 15.5594 23.0308 15.5133 22.852C14.843 20.2469 12.2039 18.2817 9.375 18.2817C6.54609 18.2817 3.90703 20.2458 3.23672 22.852C3.19055 23.0308 3.10961 23.1988 2.99852 23.3464C2.88744 23.4939 2.74838 23.6181 2.58929 23.7119C2.43019 23.8057 2.25418 23.8673 2.0713 23.893C1.88842 23.9188 1.70226 23.9083 1.52343 23.8622C1.34461 23.816 1.17663 23.7351 1.02909 23.624C0.881545 23.5129 0.757326 23.3738 0.663524 23.2147C0.569723 23.0556 0.508175 22.8796 0.482396 22.6968C0.456617 22.5139 0.467111 22.3277 0.513278 22.1489C1.14375 19.6997 2.86758 17.677 5.09648 16.5239C4.23535 15.6752 3.64613 14.5896 3.40377 13.4051C3.16141 12.2207 3.27687 10.9909 3.73546 9.87219C4.19405 8.75352 4.97504 7.79655 5.97907 7.12302C6.98311 6.44949 8.1648 6.08984 9.37383 6.08984C10.5828 6.08984 11.7645 6.44949 12.7686 7.12302C13.7726 7.79655 14.5536 8.75352 15.0122 9.87219C15.4708 10.9909 15.5862 12.2207 15.3439 13.4051C15.1015 14.5896 14.5123 15.6752 13.6512 16.5239C15.8824 17.6782 17.6062 19.7008 18.2367 22.1489ZM9.375 15.4692C10.024 15.4692 10.6584 15.2768 11.198 14.9162C11.7376 14.5557 12.1581 14.0432 12.4065 13.4436C12.6548 12.8441 12.7198 12.1843 12.5932 11.5478C12.4666 10.9113 12.1541 10.3266 11.6952 9.86775C11.2363 9.40886 10.6516 9.09635 10.0151 8.96974C9.37864 8.84314 8.71889 8.90812 8.11932 9.15647C7.51975 9.40482 7.00729 9.82538 6.64674 10.365C6.28619 10.9046 6.09375 11.539 6.09375 12.1879C6.09375 12.6188 6.17862 13.0455 6.34352 13.4436C6.50842 13.8417 6.75011 14.2034 7.0548 14.5081C7.67016 15.1235 8.50476 15.4692 9.375 15.4692Z" fill="#F78B1F"/>
</g>
<defs>
<clipPath id="clip0_111_399">
<rect width="30" height="30" fill="white"/>
</clipPath>
</defs>
</svg>
