<svg width="30" height="30" viewBox="0 0 30 30" fill="none" xmlns="http://www.w3.org/2000/svg">
<g clip-path="url(#clip0_111_380)">
<path fill-rule="evenodd" clip-rule="evenodd" d="M15 2.5C21.9038 2.5 27.5 8.09625 27.5 15C27.5044 17.8849 26.5067 20.6817 24.6775 22.9125L24.7025 22.94L24.5375 23.08C23.3653 24.4665 21.9045 25.5804 20.2572 26.3439C18.6098 27.1073 16.8157 27.5019 15 27.5C11.3125 27.5 8.00001 25.9038 5.71251 23.3663L5.46251 23.0787L5.29751 22.9412L5.32251 22.9113C3.49346 20.6809 2.49579 17.8845 2.50001 15C2.50001 8.09625 8.09626 2.5 15 2.5ZM15 21.25C12.675 21.25 10.5738 21.99 9.00876 23.0075C10.7368 24.3041 12.8396 25.0034 15 25C17.1604 25.0034 19.2632 24.3041 20.9913 23.0075C19.203 21.8616 17.1239 21.2517 15 21.25ZM15 5C13.1182 4.99995 11.2745 5.53089 9.68092 6.53181C8.08733 7.53273 6.80852 8.963 5.99146 10.6582C5.17441 12.3534 4.85227 14.2448 5.06208 16.1149C5.27188 17.985 6.00512 19.758 7.17751 21.23C9.20376 19.7762 11.9688 18.75 15 18.75C18.0313 18.75 20.7963 19.7762 22.8225 21.23C23.9949 19.758 24.7281 17.985 24.938 16.1149C25.1478 14.2448 24.8256 12.3534 24.0086 10.6582C23.1915 8.963 21.9127 7.53273 20.3191 6.53181C18.7255 5.53089 16.8819 4.99995 15 5ZM15 7.5C16.3261 7.5 17.5979 8.02678 18.5355 8.96447C19.4732 9.90215 20 11.1739 20 12.5C20 13.8261 19.4732 15.0979 18.5355 16.0355C17.5979 16.9732 16.3261 17.5 15 17.5C13.6739 17.5 12.4022 16.9732 11.4645 16.0355C10.5268 15.0979 10 13.8261 10 12.5C10 11.1739 10.5268 9.90215 11.4645 8.96447C12.4022 8.02678 13.6739 7.5 15 7.5ZM15 10C14.337 10 13.7011 10.2634 13.2322 10.7322C12.7634 11.2011 12.5 11.837 12.5 12.5C12.5 13.163 12.7634 13.7989 13.2322 14.2678C13.7011 14.7366 14.337 15 15 15C15.6631 15 16.2989 14.7366 16.7678 14.2678C17.2366 13.7989 17.5 13.163 17.5 12.5C17.5 11.837 17.2366 11.2011 16.7678 10.7322C16.2989 10.2634 15.6631 10 15 10Z" fill="#F78B1F"/>
</g>
<defs>
<clipPath id="clip0_111_380">
<rect width="30" height="30" fill="white"/>
</clipPath>
</defs>
</svg>
